<?xml version="1.0" encoding="UTF-8" standalone="no"?>
<!-- Created with Inkscape (http://www.inkscape.org/) -->
<svg
   xmlns:dc="http://purl.org/dc/elements/1.1/"
   xmlns:cc="http://creativecommons.org/ns#"
   xmlns:rdf="http://www.w3.org/1999/02/22-rdf-syntax-ns#"
   xmlns:svg="http://www.w3.org/2000/svg"
   xmlns="http://www.w3.org/2000/svg"
   xmlns:sodipodi="http://sodipodi.sourceforge.net/DTD/sodipodi-0.dtd"
   xmlns:inkscape="http://www.inkscape.org/namespaces/inkscape"
   width="444.21442"
   height="278.56448"
   id="svg2"
   sodipodi:version="0.32"
   inkscape:version="0.46"
   version="1.0"
   sodipodi:docname="cdogs_logo.svg"
   inkscape:output_extension="org.inkscape.output.svg.inkscape">
  <defs
     id="defs4">
    <inkscape:perspective
       sodipodi:type="inkscape:persp3d"
       inkscape:vp_x="0 : 526.18109 : 1"
       inkscape:vp_y="0 : 1000 : 0"
       inkscape:vp_z="744.09448 : 526.18109 : 1"
       inkscape:persp3d-origin="372.04724 : 350.78739 : 1"
       id="perspective10" />
    <inkscape:perspective
       id="perspective2447"
       inkscape:persp3d-origin="372.04724 : 350.78739 : 1"
       inkscape:vp_z="744.09448 : 526.18109 : 1"
       inkscape:vp_y="0 : 1000 : 0"
       inkscape:vp_x="0 : 526.18109 : 1"
       sodipodi:type="inkscape:persp3d" />
    <inkscape:perspective
       id="perspective16"
       inkscape:persp3d-origin="371.14001 : 281.71 : 1"
       inkscape:vp_z="742.28003 : 422.565 : 1"
       inkscape:vp_y="0 : 1000 : 0"
       inkscape:vp_x="0 : 422.565 : 1"
       sodipodi:type="inkscape:persp3d" />
    <inkscape:perspective
       id="perspective2648"
       inkscape:persp3d-origin="372.04724 : 350.78739 : 1"
       inkscape:vp_z="744.09448 : 526.18109 : 1"
       inkscape:vp_y="0 : 1000 : 0"
       inkscape:vp_x="0 : 526.18109 : 1"
       sodipodi:type="inkscape:persp3d" />
  </defs>
  <sodipodi:namedview
     id="base"
     pagecolor="#ffffff"
     bordercolor="#666666"
     borderopacity="1.0"
     gridtolerance="10000"
     guidetolerance="10"
     objecttolerance="10"
     inkscape:pageopacity="0.0"
     inkscape:pageshadow="2"
     inkscape:zoom="2.629393"
     inkscape:cx="233.5"
     inkscape:cy="126.07473"
     inkscape:document-units="px"
     inkscape:current-layer="layer1"
     showgrid="false"
     inkscape:window-width="1680"
     inkscape:window-height="1029"
     inkscape:window-x="1280"
     inkscape:window-y="0" />
  <metadata
     id="metadata7">
    <rdf:RDF>
      <cc:Work
         rdf:about="">
        <dc:format>image/svg+xml</dc:format>
        <dc:type
           rdf:resource="http://purl.org/dc/dcmitype/StillImage" />
      </cc:Work>
    </rdf:RDF>
  </metadata>
  <g
     inkscape:label="Layer 1"
     inkscape:groupmode="layer"
     id="layer1"
     transform="translate(-153.85381,-386.13573)"
     style="display:inline">
    <path
       style="fill:#000000"
       d="M 457.23287,661.45022 C 457.98466,657.93428 459.39665,655.70022 460.86704,655.70022 C 462.03238,655.70022 466.69685,650.72548 466.69685,649.48263 C 466.69685,648.97358 465.68435,648.6391 464.44685,648.73935 C 459.61256,649.13094 459.69685,649.36232 459.69685,635.70022 C 459.69685,622.70022 459.69685,622.70022 462.69685,622.70022 C 464.69685,622.70022 465.69685,622.20022 465.69685,621.20022 C 465.69685,620.12516 464.59998,619.70022 461.82504,619.70022 C 457.95322,619.70022 457.95322,619.70022 457.50691,633.68501 C 457.26144,641.37665 456.7415,647.98891 456.35149,648.37891 C 455.96148,648.76892 453.89113,648.98469 451.75071,648.8584 C 449.61029,648.7321 447.57099,649.09485 447.21893,649.6645 C 446.39853,650.99193 438.01364,651.02182 437.19685,649.70022 C 436.85693,649.15022 435.07852,648.70022 433.24482,648.70022 C 431.28802,648.70022 429.68585,648.11394 429.36619,647.28093 C 428.94312,646.1784 425.86867,645.78783 415.59104,645.53093 C 406.13908,645.29467 402.24195,644.84323 401.94535,643.95022 C 401.71701,643.26272 400.8965,642.70022 400.12199,642.70022 C 399.34748,642.70022 398.15174,641.80022 397.46478,640.70022 C 396.77782,639.60022 395.70969,638.70022 395.09116,638.70022 C 394.47263,638.70022 392.8224,637.80022 391.42398,636.70022 C 390.02556,635.60022 387.48987,634.70022 385.78912,634.70022 C 383.36352,634.70022 382.69685,634.26904 382.69685,632.70022 C 382.69685,631.60022 383.14685,630.70022 383.69685,630.70022 C 384.24685,630.70022 384.69685,630.02522 384.69685,629.20022 C 384.69685,628.37522 385.54175,627.70022 386.57441,627.70022 C 388.4821,627.70022 391.66762,624.82695 390.06929,624.54791 C 389.58945,624.46413 388.74685,624.29104 388.19685,624.16326 C 387.64685,624.03547 386.63435,623.87901 385.94685,623.81557 C 385.03354,623.73129 384.69685,620.87203 384.69685,613.20022 C 384.69685,606.86689 384.30002,602.70022 383.69685,602.70022 C 383.09432,602.70022 382.69685,606.83187 382.69685,613.09518 C 382.69685,623.49015 382.69685,623.49015 378.90826,623.85145 C 376.82454,624.05016 374.36428,624.06727 373.44101,623.88947 C 371.07885,623.43456 370.35999,618.37986 370.9073,606.07368 C 371.38567,595.31775 370.75229,593.21621 367.89375,596.07475 C 366.63531,597.33319 366.54685,597.95022 367.48971,598.89308 C 368.30682,599.71019 368.69685,604.23592 368.69685,612.90022 C 368.69685,625.70022 368.69685,625.70022 361.69685,625.70022 C 354.69685,625.70022 354.69685,625.70022 354.69685,614.63067 C 354.69685,603.72312 354.66392,603.56579 352.44685,603.88067 C 351.20935,604.05642 350.19685,604.76272 350.19685,605.45022 C 350.19685,606.13772 350.64685,606.58772 351.19685,606.45022 C 351.80148,606.29906 352.39453,610.93084 352.69685,618.16533 C 353.19685,630.13045 353.19685,630.13045 356.94685,631.01467 C 361.17,632.01046 361.94876,634.43729 358.69685,636.46815 C 357.59685,637.15511 356.69685,638.30416 356.69685,639.0216 C 356.69685,639.73904 355.45935,641.48042 353.94685,642.89132 C 351.2931,645.36682 350.74804,645.45711 338.3742,645.47087 C 327.59302,645.48286 325.45486,645.23319 324.94429,643.90265 C 324.6103,643.03228 324.86799,642.14317 325.51694,641.92686 C 326.80451,641.49767 327.16067,638.75336 325.94685,638.61429 C 320.2321,637.95954 318.49459,638.20962 317.63798,639.81021 C 317.11636,640.78488 315.28011,641.71382 313.53288,641.88696 C 310.37156,642.20022 310.37156,642.20022 313.01693,644.70022 C 315.27525,646.83444 315.66482,648.04151 315.67957,652.95022 C 315.69469,657.98121 315.45414,658.70022 313.75587,658.70022 C 312.68833,658.70022 311.53677,658.25022 311.19685,657.70022 C 310.85693,657.15022 309.76047,656.70022 308.76028,656.70022 C 307.76008,656.70022 306.38154,656.02522 305.69685,655.20022 C 304.93721,654.28491 302.74561,653.70022 300.07441,653.70022 C 296.84991,653.70022 295.69685,653.30512 295.69685,652.20022 C 295.69685,651.37522 295.24685,650.70022 294.69685,650.70022 C 294.14685,650.70022 293.69685,651.37522 293.69685,652.20022 C 293.69685,653.03355 292.80796,653.70022 291.69685,653.70022 C 289.96935,653.70022 289.69685,653.03355 289.69685,648.80721 C 289.69685,645.19093 290.12559,643.74967 291.33998,643.28367 C 293.81747,642.33297 292.14307,641.35626 288.19685,641.45022 C 282.29453,641.59075 282.0787,641.67414 283.94685,643.09227 C 285.15126,644.00655 285.69685,645.80486 285.69685,648.86046 C 285.69685,653.56829 284.40612,655.70022 281.55587,655.70022 C 278.7559,655.70022 278.32264,657.67299 280.59208,660.0887 C 281.7497,661.32093 282.69703,662.52512 282.69725,662.76467 C 282.69755,663.09309 256.50498,663.06882 235.94685,662.72135 C 234.04694,662.68924 234.45436,659.71578 236.44685,659.07218 C 240.91708,657.62824 244.51605,654.6116 246.42439,652.56493 C 247.63623,651.26524 249.70228,649.54545 251.3447,648.33111 C 252.93884,647.15247 254.1376,645.80833 254.69685,645.11985 C 255.29574,644.38257 256.49685,641.46221 258.69685,638.96288 C 260.89685,636.46355 262.2917,633.52186 262.69685,632.61845 C 263.09611,631.72816 263.41992,630.78447 263.69685,630.20022 C 264.04722,629.46104 264.26214,628.51364 264.70061,627.3912 C 265.15185,626.23607 266.0359,622.52631 267.66333,619.25821 C 270.85098,612.85695 270.69468,608.61346 271.90407,604.4676 C 272.31338,603.06447 272.63885,601.7484 272.76423,601.15858 C 273.16594,599.26891 273.38926,587.54728 272.79053,586.25812 C 272.5437,585.72666 271.92026,583.43581 271.18797,580.4491 C 270.49449,577.62071 269.882,573.85022 269.13679,572.20022 C 268.39158,570.55022 266.59828,565.60022 265.15167,561.20022 C 263.70506,556.80022 261.7928,552.95097 261.60916,552.25022 C 261.40684,551.47818 261.19593,550.1175 260.69685,548.56104 C 260.18021,546.94982 259.06363,544.33691 256.94685,541.28477 C 255.10186,538.62452 252.33671,535.22512 250.87079,533.72395 C 249.44174,532.26053 247.79554,531.1653 247.37079,530.67887 C 246.92475,530.16805 245.50784,528.70739 243.44573,526.76753 C 241.53705,524.97201 238.78261,521.90804 236.44573,520.72309 C 234.10885,519.53814 229.34699,517.06811 225.86382,515.23414 C 222.38066,513.40017 217.88066,511.58984 215.86382,511.21119 C 209.96651,510.10401 194.81855,509.93778 192.85888,510.28575 C 191.87543,510.46038 190.94442,510.67521 190.30319,510.81109 C 189.33436,511.01639 180.79059,512.97045 173.97734,515.36153 C 168.22987,517.37858 160.14452,523.49927 157.99991,527.45661 C 157.0293,529.24762 155.77654,530.56264 155.21601,530.37889 C 153.86882,529.93724 153.31035,521.88027 154.52268,520.37632 C 155.0441,519.72946 155.17573,516.97559 156.14606,514.70022 C 158.12185,510.06711 160.15853,504.29769 161.44685,502.40053 C 162.08444,501.46162 162.30944,500.88946 162.69685,500.26554 C 163.24584,499.3814 164.1669,498.57339 165.19685,497.29218 C 166.32231,495.89216 167.12631,494.65595 167.69685,493.83215 C 168.69501,492.39092 171.58787,489.54865 172.42864,488.70022 C 172.84455,488.28052 175.68407,486.41468 178.3499,483.62125 C 181.01572,480.82781 184.70103,478.16603 186.19685,477.11778 C 187.74611,476.03208 191.53427,473.88313 194.69685,472.19428 C 197.92333,470.47131 202.22185,467.932 204.69685,466.99909 C 207.17185,466.06619 209.32431,464.92125 209.69685,464.75156 C 211.23957,464.04884 221.42945,459.24253 222.88783,458.68458 C 223.91861,458.29022 224.59875,458.01784 225.14138,457.78997 C 225.85375,457.49082 228.94401,456.33322 232.90409,455.66527 C 241.51715,454.21248 275.91067,455.7272 282.19685,456.70998 C 284.6487,457.0933 285.93501,457.43581 289.14648,458.11472 C 290.78322,458.46073 293.75142,459.46857 295.54946,460.08277 C 297.53443,460.76082 299.25746,461.40373 300.06756,461.70022 C 301.03095,462.05281 303.00077,462.75978 304.91643,463.54149 C 307.27473,464.50382 310.72222,465.72109 313.69685,466.69427 C 316.6525,467.66124 323.51396,470.18702 328.79042,472.85299 C 334.06689,475.51897 338.83525,477.70022 339.38679,477.70022 C 343.35147,479.82152 346.43377,481.82256 350.04399,483.75952 C 351.22806,484.27428 352.87185,485.09192 353.69685,485.5765 C 354.52185,486.06108 356.77185,487.19547 358.69685,488.09738 C 360.62185,488.99929 363.99685,491.06395 366.19685,492.68552 C 368.39685,494.30709 372.26816,496.34029 374.5261,497.7094 C 376.9072,499.15319 380.30572,501.89661 382.5261,503.69396 C 384.87132,505.59236 388.42401,508.46536 391.28961,509.57501 C 394.09062,510.65965 398.11355,512.7219 400.22946,514.15778 C 402.55717,515.73742 404.60587,516.10911 405.6367,516.0826 C 406.59552,516.05794 408.09685,515.60008 409.19685,515.17705 C 414.84026,513.00675 421.95997,509.48719 438.54704,493.31598 C 444.07627,489.04547 447.50743,483.1051 451.59305,477.70022 C 452.73609,476.77414 460.81676,457.9715 462.13031,455.45022 C 462.86582,454.03846 463.03754,453.9004 463.63991,453.10318 C 465.05965,451.22419 464.82149,451.57522 465.69685,450.20022 C 466.48684,448.95932 467.06554,447.87238 467.36988,447.398 C 467.98386,446.44097 468.02965,446.39082 468.69685,445.16884 C 469.40203,443.87731 469.05916,444.47905 470.39833,442.3137 C 471.20523,441.009 471.35239,440.79654 471.69685,440.14292 C 472.35166,438.9004 472.62102,438.74982 473.06813,437.99991 C 474.33028,435.88298 477.63241,427.19618 478.38367,419.15111 C 478.71498,415.60312 479.65927,413.13397 479.84145,412.70022 C 480.41266,411.34023 480.26746,411.80101 480.69685,410.92273 C 481.15018,409.99548 481.59002,408.33406 482.16476,407.0495 C 482.77063,405.69536 483.46194,402.99889 484.2827,400.88872 C 485.09354,398.80406 485.91676,397.0036 486.31479,396.29334 C 486.87344,395.29647 487.12897,394.64231 487.69685,393.59185 C 488.85536,391.44884 490.36503,388.77395 493.81093,388.73202 C 496.16915,388.70333 496.48724,389.15432 497.06093,393.33979 C 497.41068,395.89156 497.69685,399.19742 497.69685,400.68615 C 497.69685,403.81766 500.16342,409.16679 502.843,411.84637 C 504.297,413.30037 506.26059,413.70969 511.94685,413.74411 C 515.93435,413.76825 520.89886,414.79616 523.19685,415.22906 C 525.79981,415.71941 528.26443,416.25913 529.39716,416.68516 C 530.75844,417.19715 531.60851,417.69916 532.39716,418.05424 C 533.4918,418.54709 534.52545,419.53849 535.44685,420.58942 C 536.28139,421.54128 537.12707,422.66583 537.69685,423.2354 C 538.40203,423.94031 538.62687,424.10377 539.19685,424.70022 C 539.87074,425.4054 539.84056,425.28704 540.69685,426.11619 C 542.27393,427.64329 548.01615,432.82597 551.98285,434.22605 C 553.92481,434.91148 555.04204,435.49193 555.69685,435.7398 C 556.11709,435.89888 558.23242,436.88151 561.19685,437.78763 C 564.07074,438.66608 565.33686,439.18933 566.69685,439.73395 C 567.06216,439.88024 569.95935,441.4756 573.94685,442.72981 C 577.93435,443.98403 581.80654,445.86731 582.77559,446.35521 C 583.79444,446.86819 584.85572,447.44837 585.58045,447.70022 C 586.21745,447.92158 588.69439,448.5339 591.00171,449.55285 C 593.30904,450.5718 595.94944,451.66927 596.86924,451.99168 C 598.76554,452.65636 598.30914,456.2513 596.22694,457.05028 C 595.52694,457.31891 594.64514,458.81254 594.2673,460.36946 C 593.24471,464.58359 588.98359,471.8809 588.51859,472.70022 C 588.31848,473.05281 588.04944,473.5767 587.69685,474.20022 C 587.29076,474.91835 587.04556,475.2749 586.69685,475.70022 C 586.44907,476.00244 586.33617,476.42904 585.69053,476.95022 C 583.84896,478.4368 579.48226,481.12314 572.36467,482.36353 C 567.84986,483.15033 565.23284,484.19786 564.09628,484.51876 C 562.08866,485.0856 558.56967,486.31177 538.56562,485.85485 C 532.94826,485.72655 527.88267,486.11406 526.41079,486.7847 C 525.0228,487.41711 522.64672,490.24431 521.13059,493.06737 C 519.61447,495.89044 516.89666,499.86133 515.09101,501.89157 C 512.71516,504.56295 512.59552,506.27367 512.2604,508.07764 C 512.00551,509.44972 511.90164,510.57402 511.70481,511.1953 C 511.45265,511.99125 511.04473,513.59367 510.69685,515.70022 C 510.34426,517.8353 510.02804,519.59102 509.83867,520.11257 C 509.56815,520.85761 508.4351,524.0238 507.76851,528.15593 C 507.10193,532.28807 505.84425,535.68312 505.62669,536.24358 C 505.36713,536.91224 505.09939,538.16711 504.69685,539.70022 C 504.29389,541.23493 504.07804,542.64558 503.76017,543.16108 C 502.68539,544.90408 499.8215,549.68619 499.10442,554.46801 C 498.71845,557.04183 497.34385,561.13903 496.04976,563.57289 C 494.75566,566.00676 494.02928,569.01753 493.69685,570.15803 C 493.39463,571.19488 492.80356,573.05022 492.22865,574.25909 C 491.673,575.42745 491.2009,577.27265 490.72865,578.36689 C 490.25783,579.45781 489.83082,580.30486 489.62012,580.89246 C 489.44917,581.3692 488.3286,587.1363 487.9682,597.01067 C 487.65185,605.67828 486.68247,612.7633 486.54493,613.29411 C 486.43108,613.7335 485.69685,617.81514 485.69685,622.70022 C 485.69685,627.5853 484.83771,631.55822 484.79073,632.1422 C 484.74569,632.70206 484.62742,633.61656 484.41596,634.7341 C 484.2012,635.86907 484.00075,637.28684 483.51544,638.4831 C 483.05316,639.62259 481.54983,641.32522 480.89747,642.70022 C 479.53239,645.57745 477.4593,648.97184 476.62227,649.70022 C 476.30625,649.97522 474.97251,652.22522 473.6584,654.70022 C 469.39703,662.72608 466.98303,664.70022 461.4303,664.70022 C 456.53794,664.70022 456.53794,664.70022 457.23287,661.45022 z M 301.69685,578.81685 C 301.69685,577.781 300.87679,576.71903 299.87449,576.45692 C 298.20596,576.02059 298.05823,574.66897 298.12449,560.44517 C 298.18804,546.8018 298.42189,544.66132 300.04481,542.86811 C 302.42559,540.23752 301.42238,538.70022 297.32492,538.70022 C 295.0327,538.70022 293.35076,539.51297 291.63394,541.45022 C 287.12068,546.54296 286.69685,548.17477 286.69685,560.45881 C 286.69685,572.09367 286.73547,572.29139 289.7142,575.9051 C 292.59162,579.39592 294.39284,580.25814 299.44685,580.56404 C 301.03194,580.65998 301.69685,580.14366 301.69685,578.81685 z M 310.77377,577.77714 C 312.91494,575.63598 313.69685,573.89725 313.69685,571.27714 C 313.69685,567.45293 311.85459,566.38103 310.9866,569.70022 C 310.69894,570.80022 309.77912,571.25363 309.55547,571.70022 C 309.30554,572.1993 308.51907,572.92504 307.69685,574.20022 C 306.8997,575.43653 306.28521,576.70022 305.7216,576.70022 C 305.15799,576.70022 304.69685,577.60022 304.69685,578.70022 C 304.69685,581.58687 307.37012,581.1808 310.77377,577.77714 z M 335.69685,559.20022 L 335.69685,538.70022 L 328.69685,538.70022 C 323.07753,538.70022 321.69685,539.00227 321.69685,540.2316 C 321.69685,541.07387 322.37185,542.02201 323.19685,542.33859 C 324.44593,542.81791 324.69685,545.66162 324.69685,559.33859 C 324.69685,573.01557 324.44593,575.85927 323.19685,576.33859 C 322.37185,576.65518 321.69685,577.54105 321.69685,578.30721 C 321.69685,579.36522 323.38024,579.70022 328.69685,579.70022 L 335.69685,579.70022 L 335.69685,559.20022 z M 346.3824,577.52591 C 347.65535,576.33003 348.47371,574.90632 348.69685,574.48541 C 348.89648,574.10884 350.0428,572.5384 350.8006,570.77376 C 352.02656,567.91894 352.86119,566.83691 352.5506,558.98439 C 352.23875,551.09984 351.8764,549.6206 349.4913,546.49536 C 348.00325,544.54554 345.17449,541.99956 343.20516,540.83762 C 340.0314,538.96506 339.55484,538.90671 339.01094,540.32409 C 338.67345,541.20357 339.13972,543.17992 340.04709,544.71598 C 341.33405,546.89463 341.69685,550.15583 341.69685,559.5455 C 341.69685,566.16568 340.88568,571.57218 340.74052,572.17323 C 340.6138,572.69793 340.41948,573.47916 340.3087,574.13109 C 340.17381,574.92492 340.35252,575.79499 339.76502,576.15809 C 339.17753,576.52118 338.69685,577.4667 338.69685,578.25924 C 338.69685,580.49053 343.7388,580.00944 346.3824,577.52591 z M 377.19685,559.19949 C 377.19685,540.2644 376.86255,537.00507 375.19685,539.70022 C 374.85693,540.25022 373.76351,540.30096 372.98885,540.70022 C 370.61234,541.92508 364.3772,547.74275 362.51936,553.11702 C 360.3518,559.38723 361.02943,561.11603 362.20301,565.06453 C 362.77508,566.98925 363.3475,568.36815 363.69685,569.2378 C 364.39977,570.98759 368.38476,576.41929 371.51888,578.0741 C 377.32341,581.13888 377.19685,581.55958 377.19685,559.19949 z M 384.46042,578.77322 C 385.41546,578.26337 387.2137,577.71434 387.91525,577.01728 C 388.71065,576.22699 389.87409,575.02271 391.06322,573.36581 C 392.19883,571.78347 393.29664,569.91042 393.59482,569.26328 C 393.95139,568.48942 394.27335,567.21189 394.69685,565.6412 C 395.10278,564.13567 395.34648,563.09948 395.44731,562.5505 C 395.85985,560.30434 394.28686,552.93752 392.712,550.20958 C 392.25349,549.41535 392.06245,548.73234 391.66525,547.8912 C 390.09855,544.57341 382.65727,537.33721 381.11969,539.82506 C 380.76298,540.40224 380.97191,541.37528 381.58398,541.98735 C 382.30898,542.71235 382.69685,548.71164 382.69685,559.20022 C 382.69685,569.6888 382.30898,575.68809 381.58398,576.41309 C 380.97191,577.02516 380.77346,578.01516 381.143,578.61309 C 381.9611,579.93681 382.25431,579.95096 384.46042,578.77322 z M 418.27823,578.56854 C 418.66291,577.94612 418.23947,577.02376 417.33725,576.51885 C 415.92272,575.72724 415.69685,573.38535 415.69685,559.51077 C 415.69685,545.34611 415.90626,543.26599 417.44685,542.12778 C 418.80373,541.12531 418.92916,540.56328 418.00521,539.6259 C 417.07419,538.68135 416.08675,538.76185 413.49021,539.99399 C 408.23298,542.48871 406.77515,546.32725 404.94839,551.16091 C 404.16506,553.23362 403.63308,555.72564 403.56421,556.2822 C 403.31594,558.28844 402.99938,560.07476 403.64222,562.46379 C 403.91263,563.46874 404.51953,565.97119 405.18753,567.95022 C 405.86685,569.96281 406.48384,571.2419 406.76691,571.70022 C 407.10597,572.24921 407.75467,573.12383 408.73364,574.29699 C 409.92545,575.72521 410.85977,576.66782 411.70889,577.41362 C 412.60264,578.19862 413.04805,578.53063 413.69685,578.81685 C 414.87394,579.33612 417.45555,579.89967 418.27823,578.56854 z M 429.73734,577.51216 C 432.46787,575.4934 432.69685,574.84031 432.69685,569.07118 C 432.69685,565.63207 433.14807,562.53939 433.69955,562.19855 C 434.36636,561.78644 434.35457,560.92918 433.66437,559.63953 C 432.83169,558.08365 431.54602,557.70022 427.16167,557.70022 C 421.80123,557.70022 421.69685,557.75548 421.69685,560.59323 C 421.69685,562.24231 422.34182,563.73374 423.19685,564.06185 C 424.28143,564.47804 424.69685,566.17803 424.69685,570.20022 C 424.69685,574.22241 424.28143,575.9224 423.19685,576.33859 C 422.37185,576.65518 421.69685,577.54105 421.69685,578.30721 C 421.69685,580.45045 426.39088,579.98631 429.73734,577.51216 z M 445.49685,578.50022 C 446.43018,577.56689 446.96352,577.56689 447.89685,578.50022 C 449.47362,580.07699 452.70587,580.04309 452.66396,578.45022 C 452.64586,577.76272 450.84586,575.4123 448.66396,573.22706 C 446.48205,571.04183 444.69685,568.45433 444.69685,567.47706 C 444.69685,566.4998 444.02185,565.70022 443.19685,565.70022 C 442.02141,565.70022 441.69685,567.07059 441.69685,572.03355 C 441.69685,579.60059 442.69606,581.30101 445.49685,578.50022 z M 462.84515,578.49822 C 464.24601,577.83712 466.13572,576.00065 467.04451,574.41718 C 469.1465,570.75468 468.18748,563.16269 467.19685,560.70022 C 466.82102,559.76599 466.24584,558.87557 465.69685,558.16698 C 464.94805,557.20048 458.20758,552.70022 456.05011,552.70022 C 455.49169,552.70022 454.43273,551.57522 453.69685,550.20022 C 452.60797,548.16563 452.59487,547.25928 453.62651,545.33166 C 454.3237,544.02895 454.73207,542.12162 454.534,541.09314 C 454.15418,539.1209 450.87085,537.90892 449.81668,539.35183 C 449.47577,539.81844 448.09802,540.2995 447.19862,541.30809 C 446.36227,542.24598 445.1052,544.15523 444.19862,545.97624 C 443.2983,547.78468 442.66238,549.74358 442.44685,550.28504 C 441.85422,551.77385 442.20813,554.91672 442.69685,556.20022 C 442.99731,556.98931 443.14786,557.54197 443.69685,558.31561 C 444.96387,560.10112 449.77959,565.70022 452.34299,565.70022 C 455.23249,565.70022 460.69685,570.35117 460.69685,572.81055 C 460.69685,573.90151 459.60815,575.23914 458.19685,575.88217 C 455.64587,577.04448 455.17825,577.84829 456.36352,579.03355 C 457.38006,580.0501 460.0185,579.83218 462.84515,578.49822 z M 313.69685,546.54523 C 313.69685,538.70815 313.62556,538.45476 311.86811,540.04523 C 309.6008,542.09712 308.69685,542.1413 308.69685,540.20022 C 308.69685,538.39235 305.05319,538.17997 304.40779,539.95022 C 304.15714,540.63772 304.91898,542.55022 306.10077,544.20022 C 307.28256,545.85022 309.12747,548.88772 310.20057,550.95022 C 311.27367,553.01272 312.49933,554.70022 312.92425,554.70022 C 313.34918,554.70022 313.69685,551.03048 313.69685,546.54523 z M 432.69685,547.26309 C 432.69685,539.82596 432.69685,539.82596 429.20531,540.39256 C 427.06176,540.74041 425.12207,540.46809 424.18115,539.68719 C 423.3382,538.9876 422.3933,538.67043 422.08138,538.98236 C 420.96523,540.0985 422.80134,543.49428 424.80418,544.01804 C 425.92678,544.3116 427.26384,545.32535 427.88677,546.32656 C 428.53445,547.36756 428.87662,548.20114 429.06302,548.70022 C 429.23301,549.15536 429.69685,550.05022 429.69685,551.70022 C 429.69685,553.70022 430.19685,554.70022 431.19685,554.70022 C 432.39572,554.70022 432.69685,553.20721 432.69685,547.26309 z M 468.69685,547.20022 C 468.69685,539.76321 468.18948,538.60759 465.92048,540.87659 C 465.01865,541.77842 464.3118,541.66173 462.89174,540.37659 C 461.87293,539.45459 460.2873,538.70022 459.36811,538.70022 C 457.0135,538.70022 457.24607,542.40176 459.69685,543.93229 C 460.79685,544.61925 461.69685,545.48268 461.69685,545.85102 C 461.69685,547.05803 467.03187,554.70022 467.87448,554.70022 C 468.32678,554.70022 468.69685,551.32522 468.69685,547.20022 z M 479.69685,663.24991 C 479.69685,662.45224 480.28193,661.43974 480.99703,660.99991 C 483.99583,659.15546 489.61402,647.69921 490.69685,644.69028 C 491.09611,643.58082 491.54946,642.04141 491.70429,640.93665 C 491.85753,639.8432 493.04588,634.49103 493.45429,628.73535 C 494.19685,618.27048 494.19685,618.27048 497.94685,617.38601 C 500.00935,616.89955 501.12038,615.62568 501.69685,615.2222 C 502.34565,614.7681 503.29639,613.83284 504.69685,612.70022 C 506.08549,611.57716 507.25807,610.74481 507.71907,610.3289 C 508.13055,609.95767 510.28406,607.48215 512.72645,604.82776 C 515.1959,602.14396 518.60533,598.5979 519.69766,596.32776 C 520.78999,594.05761 522.57233,590.85022 523.65842,589.20022 C 526.51722,584.8571 528.00496,579.65825 528.69685,577.42459 C 529.39556,575.16891 533.43869,564.70022 534.60115,564.70022 C 535.3542,564.70022 536.07618,566.91991 537.34611,573.1395 C 537.89486,575.82704 538.0066,575.8898 543.90363,576.82199 C 547.08393,577.32473 549.75146,578.40015 550.6742,579.55157 C 552.55022,581.89252 560.57865,585.88308 566.97261,587.65276 C 569.59928,588.37976 571.9506,589.30179 572.19778,589.70172 C 572.44495,590.10165 571.58042,592.64017 570.27659,595.34287 C 567.98671,600.08956 567.70461,600.29846 561.99123,601.47854 C 558.73811,602.15047 553.81709,602.70022 551.05563,602.70022 C 546.85386,602.70022 545.8457,603.06584 544.8929,604.95022 C 542.85027,608.99 541.07725,616.02033 540.67597,619.20022 C 540.46936,620.83746 539.5337,622.92596 539.19685,624.70022 C 538.8395,626.58246 537.75099,630.37977 537.71773,636.70022 C 537.65697,648.24714 536.08701,653.21477 530.41807,659.79755 C 526.19685,664.69924 526.19685,664.69924 502.94685,664.69973 C 483.30066,664.70014 479.69685,664.47542 479.69685,663.24991 z M 198.69685,656.71927 C 198.69685,654.28218 199.19857,653.6268 201.44685,653.12706 C 210.50581,651.11345 218.82467,643.3185 220.66754,639.00924 C 221.09494,638.00984 221.72264,637.11593 221.90249,636.40586 C 222.06124,635.77909 222.69685,633.8353 222.69685,631.70022 C 222.69685,629.56514 221.89966,627.81415 221.69685,627.20022 C 221.47587,626.53128 221.14925,625.82318 220.69685,624.62133 C 219.69727,621.96587 216.31468,615.27325 212.39023,612.27992 C 209.61195,610.16082 207.92269,609.70022 202.92918,609.70022 C 197.88743,609.70022 196.33817,610.13115 193.84854,612.22603 C 192.09058,613.70526 190.58939,614.33536 190.22558,613.7467 C 188.78308,611.4127 196.56646,601.41077 201.69685,599.00569 C 203.62185,598.10326 206.00035,596.68114 206.98241,595.8454 C 208.31951,594.70752 211.20785,594.33349 218.48241,594.35618 C 227.90669,594.38557 228.45074,594.5144 236.69685,598.66956 C 241.37185,601.02527 245.43762,603.3284 245.7319,603.78765 C 246.02617,604.2469 247.87342,605.29387 249.83689,606.11427 C 253.69214,607.72509 259.69685,613.87198 259.69685,616.20768 C 259.69685,616.99851 258.5178,620.24535 257.07674,623.42288 C 255.63568,626.60042 253.79301,630.70814 252.98193,632.55114 C 252.17085,634.39415 250.2766,636.60835 248.77249,637.47159 C 247.26838,638.33483 245.35007,640.23932 244.50958,641.7038 C 242.85556,644.58576 236.85407,648.95578 229.69685,652.48977 C 227.22185,653.71184 224.52185,655.11796 223.69685,655.61448 C 220.27154,657.67596 211.0489,659.70022 205.08202,659.70022 C 198.69685,659.70022 198.69685,659.70022 198.69685,656.71927 z"
       id="path2522"
       sodipodi:nodetypes="cssssssssssssssssssssssssssssssssssssssssssssssssssssssssssssssssssssssssssssssssssssssssssssssssssssssssssssssssssssssssssssccsssssssssccssssssssssssssssssssssssssssssssssssssssssssssssssssssssssssssssssssssssccssssssssccssssssccccsssssccccssssssssssssccssssssccssssssssssssccsssssssssssssccsssssssssccssssssccsssssssssssssssssccssssssccssssssssccssssssccsssssssssssssssssssssssssssccssssssssssssssssssssssssc" />
    <g
       id="g2573"
       transform="matrix(0.1259022,0,0,0.1259022,350.33384,383.34057)">
      <g
         id="g2520"
         transform="matrix(655.57452,0,0,655.57452,65.527429,116.80042)">
        <g
           style="font-style:normal;font-variant:normal;font-weight:normal;font-stretch:normal;letter-spacing:normal;word-spacing:normal;text-anchor:start;fill:none;fill-opacity:1;stroke:#000000;stroke-linecap:butt;stroke-linejoin:miter;stroke-miterlimit:10.43299961;stroke-dasharray:none;stroke-dashoffset:0;stroke-opacity:1"
           xml:space="preserve"
           id="content"
           transform="matrix(1.7361e-3,0,0,-1.7361e-3,0.136492,0.7974024)">













































<path
   style="stroke-width:27.56940079"
   id="path2500"
   d="M 501.92756,528.63934 L 503.08716,491.33025 L 503.59135,455.43286 L 503.4401,420.77574 L 502.63341,387.3589 L 501.15113,355.15208 L 499.01342,324.12504 L 496.20011,294.24752 L 492.71121,265.48927 L 488.55679,237.82004 L 483.71669,211.20959 L 478.20099,185.62765 L 472.00971,161.0339 L 465.12265,137.3981 L 457.55999,114.70005 L 449.30159,92.909533 L 440.35749,71.986199 L 430.70754,51.899793 L 420.37191,32.630143 L 409.33044,14.126853 L 397.5932,-3.6201674 L 385.14003,-20.661349 L 371.9911,-37.006759 L 358.12624,-52.706828 L 343.55553,-67.781714 L 328.26889,-82.261678 L 312.26631,-96.176956 L 295.53773,-109.56789 L 278.09321,-122.46474 L 259.92267,-134.87757 L 241.01604,-146.86691 L 221.39347,-158.4428 L 201.03482,-169.64562 C -20.056823,-52.031226 -111.83308,124.35 -95.447389,528.63934 L 501.92756,528.63934 z" />
<path
   style="fill:#000000;fill-rule:nonzero;stroke-width:0"
   id="path2502"
   d="M 144.15359,326.33334 L 141.94529,324.21579 L 139.858,322.10832 L 137.8917,319.99078 L 136.0565,317.87324 L 134.33222,315.76578 L 132.72894,313.65832 L 131.22649,311.56095 L 129.84505,309.46357 L 128.57451,307.37628 L 127.39475,305.29908 L 126.32589,303.23194 L 125.34778,301.16482 L 124.47052,299.11786 L 123.684,297.08099 L 122.97815,295.06429 L 122.37314,293.05766 L 121.83871,291.06112 L 121.38495,289.08474 L 121.01187,287.12854 L 120.71944,285.1925 L 120.48752,283.27663 L 120.32618,281.38092 L 120.23543,279.50538 L 120.20518,277.65001 L 120.31609,274.01994 L 120.63878,270.50079 L 121.15303,267.09255 L 121.82863,263.80531 L 122.65548,260.65925 L 123.59325,257.64428 L 124.63185,254.78055 L 125.74104,252.07816 L 126.89057,249.54719 L 128.07034,247.18765 L 129.25011,245.0096 L 130.40972,243.02315 L 131.51891,241.23836 L 132.55751,239.66533 L 133.49528,238.30405 L 133.92887,237.71921 L 134.32213,237.17469 L 134.68514,236.70076 L 135.00781,236.28735 L 135.28006,235.93442 L 135.52208,235.64199 L 135.71366,235.41008 L 135.84475,235.23866 L 135.93549,235.14791 L 135.96574,235.10757 C 141.83437,222.97707 152.14983,210.14073 161.56784,200.20845 C 169.24142,192.10129 173.97059,177.95409 174.95879,166.7311 C 176.01756,154.56027 163.96773,154.56027 157.70585,165.30932 C 148.80209,180.51531 147.50131,194.21883 131.31723,200.99497 C 120.95137,205.05864 108.46795,202.931 106.69324,191.66769 C 103.54718,173.2249 113.19713,164.08922 120.75977,147.43121 C 128.20142,132.1849 115.94993,100.36127 91.023417,97.759715 C 82.553258,96.852205 79.639108,103.23508 80.546634,106.39122 C 74.667929,105.91729 74.788924,96.741285 75.303191,93.151543 C 75.898113,89.138285 82.43225,81.454631 93.302305,79.921934 C 111.15016,77.401056 134.77589,99.181495 149.15501,108.67009 C 149.15501,108.67009 154.59004,86.14348 144.5065,76.019603 C 144.5065,76.019603 167.00287,72.197953 178.65944,99.332755 C 184.84065,41.120485 157.11093,29.9681 126.46706,39.547448 C 120.6791,41.352409 116.58519,49.11673 111.62409,53.170317 C 111.62409,53.170317 109.68805,-43.177886 178.82078,16.264563 C 178.82078,16.264563 170.18927,-46.676879 124.81336,-27.649243 C 124.81336,-27.649243 150.57679,-94.533343 191.61679,-39.426812 C 191.61679,-39.426812 175.11004,-75.949386 205.52199,-116.39445 C 232.0316,-75.949386 215.68619,-39.426812 215.68619,-39.426812 C 256.72619,-94.533343 282.52997,-27.649243 282.52997,-27.649243 C 234.35082,-43.682061 228.52253,16.264563 228.52253,16.264563 C 297.65527,-43.177886 295.6789,53.170317 295.6789,53.170317 C 290.75812,49.11673 286.78522,40.807893 280.87626,39.547448 C 247.42917,32.337721 222.46233,41.120485 228.68387,99.332755 C 240.34044,72.197953 262.83681,76.019603 262.83681,76.019603 C 252.75327,86.14348 258.1883,108.67009 258.1883,108.67009 C 272.56742,99.181495 296.19315,77.401056 314.04102,79.921934 C 324.91106,81.454631 331.4452,89.138285 332.04013,93.151543 C 332.55439,96.741285 332.6653,105.91729 326.83702,106.39122 C 327.7042,103.23508 324.79007,96.852205 316.27956,97.759715 C 291.39338,100.36127 279.10156,132.1849 286.58354,147.43121 C 294.1462,164.08922 303.79614,173.2249 300.65007,191.66769 C 298.87538,202.931 286.39196,205.05864 276.02608,200.99497 C 259.842,194.21883 258.54123,180.51531 249.63746,165.30932 C 243.37558,154.56027 231.32576,154.56027 232.34419,166.7311 C 233.37272,177.95409 238.10189,192.10129 245.77547,200.20845 C 255.19349,210.14073 265.50895,222.97707 271.37757,235.10757 C 271.37757,235.10757 318.96178,286.20085 245.19062,344.10053 C 227.2621,319.7992 226.24366,297.69609 226.24366,297.69609 C 194.69227,306.72085 187.12962,333.0288 187.12962,333.0288 C 168.18265,314.55576 169.40275,285.76727 169.40275,285.76727 C 137.57912,294.55002 144.15359,326.33334 144.15359,326.33334 z" />
<path
   style="fill:#000000;fill-rule:nonzero;stroke-width:0"
   id="path2504"
   d="M 288.71117,318.1455 L 288.73134,318.16567 L 288.79184,318.22616 L 288.89268,318.31692 L 289.03384,318.45809 L 289.21535,318.63959 L 289.4271,318.85135 L 289.67919,319.09335 L 289.96153,319.38577 L 290.27412,319.69836 L 290.62704,320.05129 L 291.00014,320.43446 L 291.40348,320.85797 L 292.29082,321.78565 L 293.28909,322.82427 L 294.36803,323.98387 L 295.51756,325.24431 L 296.74774,326.61567 L 298.03844,328.0677 L 299.36947,329.61048 L 300.75091,331.23393 L 302.15252,332.92796 L 303.5743,334.69258 L 305.00616,336.50762 L 306.43803,338.39325 L 307.8598,340.30911 L 309.26141,342.27541 L 310.63277,344.28203 L 311.96381,346.30881 L 313.23433,348.36586 L 314.45444,350.4229 L 315.59387,352.50011 L 316.66274,354.57732 L 317.63076,356.65452 L 318.50802,358.72166 L 319.26428,360.76861 L 319.89956,362.7954 L 320.41381,364.79195 L 320.77682,366.74815 C 326.95803,397.82561 306.27669,434.02551 303.21129,447.49711 C 300.09548,460.92838 312.49823,469.19689 323.88254,471.24384 C 335.26686,473.37147 374.58257,460.92838 396.28235,465.06264 C 418.02245,469.19689 437.67526,480.5812 461.47242,496.06952 C 461.47242,496.06952 471.47529,440.20672 389.03228,406.05378 C 422.04578,387.10681 461.86568,413.14251 461.86568,413.14251 C 461.86568,413.14251 467.06878,362.68449 385.96689,339.88561 C 426.57329,322.03775 457.33816,346.06681 457.33816,346.06681 C 457.33816,346.06681 465.29407,296.86923 367.88711,275.95598 C 406.09362,249.71862 450.08809,280.87674 450.08809,280.87674 C 450.08809,280.87674 454.61561,224.90303 355.24235,207.97277 C 382.8914,181.6144 428.38832,203.32426 428.38832,203.32426 C 428.38832,203.32426 424.21374,154.43928 335.26686,153.65276 C 340.42963,129.58336 378.63615,134.3932 378.63615,134.3932 C 378.63615,134.3932 379.81593,111.78592 330.34609,120.28634 C 297.22167,125.96337 313.32508,158.69453 320.26255,170.74435 C 331.87879,190.87109 316.87449,220.37552 303.95748,223.49134 C 280.79559,229.04736 305.25826,248.82119 306.27669,275.72406 C 307.34555,302.61685 288.71117,318.1455 288.71117,318.1455 z" />
<path
   style="fill:#000000;fill-rule:nonzero;stroke-width:0"
   id="path2506"
   d="M 120.71944,324.32671 L 120.69927,324.33679 L 120.62869,324.38721 L 120.50769,324.46788 L 120.35643,324.5788 L 120.15476,324.70988 L 119.92285,324.88131 L 119.6405,325.07289 L 119.32791,325.29473 L 118.97499,325.54682 L 118.59181,325.82915 L 118.17838,326.13166 L 117.72463,326.46442 L 116.73645,327.2106 L 115.63734,328.04754 L 114.4374,328.97522 L 113.14671,329.99365 L 111.78542,331.10284 L 110.36364,332.2927 L 108.88137,333.56323 L 107.34867,334.90433 L 105.7958,336.30595 L 104.22278,337.77814 L 102.62957,339.31084 L 101.04646,340.90405 L 99.483511,342.54766 L 97.930644,344.23161 L 96.428196,345.96597 L 94.956009,347.74069 L 93.554387,349.55571 L 92.223365,351.39092 L 90.96292,353.26646 L 89.803312,355.15208 L 88.744542,357.05787 L 87.796689,358.98383 L 86.979922,360.91986 L 86.294241,362.86599 L 85.759816,364.80202 L 85.558141,365.78013 L 85.386727,366.74815 C 79.205521,397.82561 99.87677,434.02551 102.99258,447.49711 C 106.10839,460.92838 93.695564,469.19689 82.311243,471.24384 C 70.896684,473.37147 31.580969,460.92838 9.8812,465.06264 C -11.863948,469.19689 -31.519787,480.5812 -55.309877,496.06952 C -55.309877,496.06952 -65.314763,440.20672 17.131263,406.05378 C -15.882238,387.10681 -55.664817,413.14251 -55.664817,413.14251 C -55.664817,413.14251 -60.903215,362.68449 20.236992,339.88561 C -20.372437,322.03775 -51.174618,346.06681 -51.174618,346.06681 C -51.174618,346.06681 -59.130528,296.86923 38.276441,275.95598 C 0.11025287,249.71862 -43.926572,280.87674 -43.926572,280.87674 C -43.926572,280.87674 -48.456096,224.90303 50.961536,207.97277 C 23.272136,181.6144 -22.184449,203.32426 -22.184449,203.32426 C -22.184449,203.32426 -18.048182,154.43928 70.896684,153.65276 C 65.733909,129.58336 27.527394,134.3932 27.527394,134.3932 C 27.527394,134.3932 26.377865,111.78592 75.817445,120.28634 C 108.94186,125.96337 92.868706,158.69453 85.941322,170.74435 C 74.27467,190.87109 89.289058,220.37552 102.20606,223.49134 C 125.36795,229.04736 100.90529,248.82119 99.87677,275.72406 C 98.858328,302.61685 120.71944,324.32671 120.71944,324.32671 z" />
<path
   style="fill:#000000;stroke-width:0"
   id="path2508"
   d="M 291.15138,482.82983 L 290.58671,481.84165 L 290.01194,480.92404 L 289.4271,480.07703 L 288.84226,479.29051 L 288.25741,478.55441 L 287.66248,477.87882 L 287.05747,477.25364 L 286.45245,476.68896 L 285.83736,476.16462 L 285.21218,475.69069 L 284.57692,475.25709 L 283.94165,474.86383 L 283.29631,474.51091 L 282.63079,474.19832 L 281.96528,473.91598 L 281.2796,473.67398 L 280.59392,473.45214 L 279.88808,473.26056 L 279.17214,473.08913 L 278.44613,472.94797 L 277.69995,472.81688 L 276.94368,472.70596 L 276.17733,472.61521 L 275.39081,472.52446 L 273.78753,472.38328 L 272.10359,472.26229 L 270.35913,472.14128 L 269.46169,472.0707 L 268.5441,471.99002 C 240.54212,471.36485 220.05236,479.19976 192.60497,476.05369 C 191.26387,475.6201 185.82884,468.16837 183.5802,467.70452 C 171.8833,465.41556 153.017,458.12516 143.5284,451.42969 C 131.90208,443.24186 138.36563,427.08803 144.54684,424.45623 C 141.3201,439.21853 170.54219,433.82383 177.31833,432.76506 C 194.09734,430.12318 198.70552,405.14626 187.04895,403.65389 C 173.06308,401.87919 124.62177,388.88152 137.7707,343.97952 C 137.7707,343.97952 143.48806,364.45918 166.44828,365.71963 C 144.98043,341.33763 162.35436,324.04437 162.35436,324.04437 C 162.35436,324.04437 172.47824,349.80781 194.77294,359.53842 C 198.51392,341.69055 202.83976,334.6825 214.98034,324.80063 C 222.34133,342.44682 225.37647,355.3235 241.20763,368.20018 C 241.20763,368.20018 263.81492,362.4929 276.54034,340.63178 C 287.80365,349.72714 290.67745,360.48628 287.96499,375.57124 C 285.32309,390.14195 267.44499,390.92847 267.44499,405.97311 C 267.44499,412.43666 270.55072,416.81291 276.18741,416.0264 C 280.71493,415.35079 286.19028,407.66714 286.19028,407.66714 C 295.9209,423.34704 277.72011,435.99181 263.73424,450.84485 C 262.44356,452.60947 262.24188,456.55214 264.09725,456.67313 C 283.2358,458.01425 291.46397,463.36861 294.34786,471.99002 C 294.62013,472.89755 293.87393,481.44839 291.15138,482.82983 z" />
<path
   style="fill:#000000;stroke-width:0"
   id="path2510"
   d="M 208.95039,451.59104 L 208.37563,451.60112 L 207.81096,451.65153 L 207.25636,451.72212 L 206.71185,451.81287 L 206.16733,451.94396 L 205.64298,452.08512 L 205.12873,452.26663 L 204.62455,452.45821 L 204.13046,452.68006 L 203.64645,452.93214 L 203.1826,453.19431 L 202.73893,453.48673 L 202.29526,453.78924 L 201.88183,454.12199 L 201.47849,454.47493 L 201.09531,454.83794 L 200.72222,455.2211 L 200.37938,455.62444 L 200.04662,456.04795 L 199.73404,456.48155 L 199.4517,456.93531 L 199.17945,457.39915 L 198.93743,457.87308 L 198.7156,458.36717 L 198.51392,458.87134 L 198.34251,459.39569 L 198.19125,459.92003 L 198.07026,460.45446 L 197.96942,461.00905 L 197.89883,461.56365 L 197.85849,462.12833 L 197.83834,462.693 C 197.83834,464.70972 199.49203,466.36341 201.50874,466.36341 C 203.51537,466.36341 205.16906,464.70972 205.16906,462.693 C 205.16906,460.60571 206.8631,458.88143 208.95039,458.88143 C 211.07801,458.88143 212.73172,460.57546 212.73172,462.693 C 212.73172,464.70972 214.34508,466.36341 216.39204,466.36341 C 218.39867,466.36341 220.05236,464.70972 220.05236,462.693 C 220.05236,456.55214 215.05093,451.59104 208.95039,451.59104 z" />
</g>      </g>
    </g>
  </g>
</svg>
